<mxfile host="app.diagrams.net" modified="2023-03-10T06:18:21.302Z" agent="5.0 (Windows NT 10.0; Win64; x64) AppleWebKit/537.36 (KHTML, like Gecko) Chrome/110.0.0.0 Safari/537.36" etag="D6yGsgFcxQ31-2aCJxAq" version="21.0.4" type="github">
  <diagram name="第 1 页" id="svaj3bv5GG7hXoMcIvTH">
    <mxGraphModel dx="1434" dy="764" grid="1" gridSize="10" guides="1" tooltips="1" connect="1" arrows="1" fold="1" page="1" pageScale="1" pageWidth="827" pageHeight="1169" math="0" shadow="0">
      <root>
        <mxCell id="0" />
        <mxCell id="1" parent="0" />
        <mxCell id="Qwnw_DnZcRBZC4ZerT64-11" value="&lt;font face=&quot;Lucida Console&quot; style=&quot;font-size: 20px; font-weight: normal;&quot;&gt;main()&lt;/font&gt;" style="swimlane;whiteSpace=wrap;html=1;startSize=40;" vertex="1" parent="1">
          <mxGeometry x="90" y="430" width="450" height="385" as="geometry" />
        </mxCell>
        <mxCell id="Qwnw_DnZcRBZC4ZerT64-12" style="edgeStyle=orthogonalEdgeStyle;rounded=0;orthogonalLoop=1;jettySize=auto;html=1;exitX=0.5;exitY=1;exitDx=0;exitDy=0;" edge="1" parent="Qwnw_DnZcRBZC4ZerT64-11" source="Qwnw_DnZcRBZC4ZerT64-3" target="Qwnw_DnZcRBZC4ZerT64-5">
          <mxGeometry relative="1" as="geometry" />
        </mxCell>
        <mxCell id="Qwnw_DnZcRBZC4ZerT64-3" value="&lt;div style=&quot;background-color: rgb(255, 255, 255); font-size: 20px; line-height: 19px;&quot;&gt;&lt;font face=&quot;Lucida Console&quot;&gt;parse_file()&lt;/font&gt;&lt;/div&gt;" style="rounded=1;whiteSpace=wrap;html=1;" vertex="1" parent="Qwnw_DnZcRBZC4ZerT64-11">
          <mxGeometry x="92" y="70" width="266" height="50" as="geometry" />
        </mxCell>
        <mxCell id="Qwnw_DnZcRBZC4ZerT64-13" style="edgeStyle=orthogonalEdgeStyle;rounded=0;orthogonalLoop=1;jettySize=auto;html=1;" edge="1" parent="Qwnw_DnZcRBZC4ZerT64-11" source="Qwnw_DnZcRBZC4ZerT64-5" target="Qwnw_DnZcRBZC4ZerT64-8">
          <mxGeometry relative="1" as="geometry" />
        </mxCell>
        <mxCell id="Qwnw_DnZcRBZC4ZerT64-5" value="&lt;div style=&quot;background-color: rgb(255, 255, 255); font-size: 20px; line-height: 19px;&quot;&gt;&lt;font face=&quot;Lucida Console&quot;&gt;parse_unixsockets()&lt;/font&gt;&lt;/div&gt;" style="rounded=1;whiteSpace=wrap;html=1;" vertex="1" parent="Qwnw_DnZcRBZC4ZerT64-11">
          <mxGeometry x="92" y="190" width="266" height="50" as="geometry" />
        </mxCell>
        <mxCell id="Qwnw_DnZcRBZC4ZerT64-8" value="&lt;div style=&quot;background-color: rgb(255, 255, 255); font-size: 20px; line-height: 19px;&quot;&gt;&lt;font face=&quot;Lucida Console&quot;&gt;scan_procs()&lt;/font&gt;&lt;/div&gt;" style="rounded=1;whiteSpace=wrap;html=1;" vertex="1" parent="Qwnw_DnZcRBZC4ZerT64-11">
          <mxGeometry x="92" y="300" width="266" height="50" as="geometry" />
        </mxCell>
        <mxCell id="Qwnw_DnZcRBZC4ZerT64-14" value="&lt;font style=&quot;font-size: 20px; font-weight: normal;&quot; face=&quot;Lucida Console&quot;&gt;parse_file()&lt;/font&gt;" style="swimlane;whiteSpace=wrap;html=1;startSize=40;" vertex="1" parent="1">
          <mxGeometry x="810" y="10" width="450" height="385" as="geometry" />
        </mxCell>
        <mxCell id="Qwnw_DnZcRBZC4ZerT64-20" style="edgeStyle=orthogonalEdgeStyle;rounded=0;orthogonalLoop=1;jettySize=auto;html=1;exitX=1;exitY=0.5;exitDx=0;exitDy=0;entryX=0;entryY=0.5;entryDx=0;entryDy=0;" edge="1" parent="1" source="Qwnw_DnZcRBZC4ZerT64-3" target="Qwnw_DnZcRBZC4ZerT64-14">
          <mxGeometry relative="1" as="geometry" />
        </mxCell>
        <mxCell id="Qwnw_DnZcRBZC4ZerT64-21" value="&lt;span style=&quot;font-weight: normal;&quot;&gt;&lt;font face=&quot;Lucida Console&quot; style=&quot;font-size: 20px;&quot;&gt;parse_unixsockets()&lt;/font&gt;&lt;/span&gt;" style="swimlane;whiteSpace=wrap;html=1;startSize=40;" vertex="1" parent="1">
          <mxGeometry x="810" y="452.5" width="450" height="385" as="geometry" />
        </mxCell>
        <mxCell id="Qwnw_DnZcRBZC4ZerT64-22" style="edgeStyle=orthogonalEdgeStyle;rounded=0;orthogonalLoop=1;jettySize=auto;html=1;entryX=0;entryY=0.5;entryDx=0;entryDy=0;" edge="1" parent="1" source="Qwnw_DnZcRBZC4ZerT64-5" target="Qwnw_DnZcRBZC4ZerT64-21">
          <mxGeometry relative="1" as="geometry" />
        </mxCell>
        <mxCell id="Qwnw_DnZcRBZC4ZerT64-23" value="&lt;span style=&quot;font-weight: normal;&quot;&gt;&lt;font face=&quot;Lucida Console&quot; style=&quot;font-size: 20px;&quot;&gt;scan_procs()&lt;/font&gt;&lt;/span&gt;" style="swimlane;whiteSpace=wrap;html=1;startSize=40;" vertex="1" parent="1">
          <mxGeometry x="810" y="900" width="450" height="385" as="geometry" />
        </mxCell>
        <mxCell id="Qwnw_DnZcRBZC4ZerT64-24" style="edgeStyle=orthogonalEdgeStyle;rounded=0;orthogonalLoop=1;jettySize=auto;html=1;entryX=0;entryY=0.5;entryDx=0;entryDy=0;" edge="1" parent="1" source="Qwnw_DnZcRBZC4ZerT64-8" target="Qwnw_DnZcRBZC4ZerT64-23">
          <mxGeometry relative="1" as="geometry" />
        </mxCell>
      </root>
    </mxGraphModel>
  </diagram>
</mxfile>
